<svg width="82" height="33" viewBox="0 0 82 33" fill="none" xmlns="http://www.w3.org/2000/svg">
<path d="M46.73 2H48.5C49.72 2 50.33 2.62 50.33 3.86C50.33 4.50667 50.1533 5.01333 49.8 5.38C49.4533 5.74 48.9567 5.92 48.31 5.92H47.61V9H46.73V2ZM48.25 5.26C48.63 5.26 48.9233 5.13 49.13 4.87C49.3433 4.61 49.45 4.27333 49.45 3.86C49.45 3.46667 49.3467 3.17 49.14 2.97C48.94 2.76333 48.6433 2.66 48.25 2.66H47.61V5.26H48.25ZM51.1313 3.8H51.7513L51.8413 4.17L52.0913 4.05C52.3046 3.94333 52.4813 3.86333 52.6213 3.81C52.7679 3.75667 52.9146 3.73 53.0613 3.73V4.32C52.9746 4.32 52.8579 4.34667 52.7113 4.4C52.5646 4.44667 52.3046 4.56 51.9313 4.74V9H51.1313V3.8ZM54.847 9C54.4804 9 54.187 8.89 53.967 8.67C53.7537 8.45 53.647 8.15333 53.647 7.78V5.12C53.647 4.68667 53.767 4.34667 54.007 4.1C54.247 3.85333 54.6037 3.73 55.077 3.73C55.5504 3.73 55.9037 3.85333 56.137 4.1C56.377 4.34667 56.497 4.68667 56.497 5.12V5.58C56.497 5.86 56.417 6.07333 56.257 6.22C56.097 6.36 55.887 6.46667 55.627 6.54L54.447 6.87V7.85C54.447 8.01 54.4937 8.14333 54.587 8.25C54.687 8.35 54.8137 8.4 54.967 8.4H56.047V9H54.847ZM55.057 6.07C55.277 6.01 55.4237 5.96667 55.497 5.94C55.577 5.90667 55.6304 5.86 55.657 5.8C55.6837 5.74 55.697 5.64 55.697 5.5V4.95C55.697 4.73667 55.6404 4.58 55.527 4.48C55.4204 4.38 55.2704 4.33 55.077 4.33C54.8904 4.33 54.737 4.38333 54.617 4.49C54.5037 4.59667 54.447 4.75 54.447 4.95V6.24L55.057 6.07ZM58.3934 9C58.0267 9 57.7334 8.89 57.5134 8.67C57.3 8.45 57.1934 8.15333 57.1934 7.78V5.12C57.1934 4.7 57.3034 4.37667 57.5234 4.15C57.7434 3.91667 58.0634 3.8 58.4834 3.8H59.5934V4.4H58.5034C58.35 4.4 58.2267 4.45333 58.1334 4.56C58.04 4.66 57.9934 4.79 57.9934 4.95V7.85C57.9934 8.01 58.04 8.14333 58.1334 8.25C58.2334 8.35 58.36 8.4 58.5134 8.4H59.5934V9H58.3934ZM61.3314 9C60.9647 9 60.6714 8.89 60.4514 8.67C60.2381 8.45 60.1314 8.15333 60.1314 7.78V5.12C60.1314 4.68667 60.2514 4.34667 60.4914 4.1C60.7314 3.85333 61.0881 3.73 61.5614 3.73C62.0347 3.73 62.3881 3.85333 62.6214 4.1C62.8614 4.34667 62.9814 4.68667 62.9814 5.12V5.58C62.9814 5.86 62.9014 6.07333 62.7414 6.22C62.5814 6.36 62.3714 6.46667 62.1114 6.54L60.9314 6.87V7.85C60.9314 8.01 60.9781 8.14333 61.0714 8.25C61.1714 8.35 61.2981 8.4 61.4514 8.4H62.5314V9H61.3314ZM61.5414 6.07C61.7614 6.01 61.9081 5.96667 61.9814 5.94C62.0614 5.90667 62.1147 5.86 62.1414 5.8C62.1681 5.74 62.1814 5.64 62.1814 5.5V4.95C62.1814 4.73667 62.1247 4.58 62.0114 4.48C61.9047 4.38 61.7547 4.33 61.5614 4.33C61.3747 4.33 61.2214 4.38333 61.1014 4.49C60.9881 4.59667 60.9314 4.75 60.9314 4.95V6.24L61.5414 6.07ZM65.0977 9C64.6777 9 64.3377 8.87667 64.0777 8.63C63.8177 8.38333 63.6877 8.05333 63.6877 7.64V5.15C63.6877 4.86333 63.7644 4.62 63.9177 4.42C64.0777 4.22 64.2744 4.08333 64.5077 4.01L65.8477 3.54V2H66.6477V9H65.0977ZM65.8477 8.4V4.2L64.9577 4.5C64.7844 4.55333 64.6611 4.64 64.5877 4.76C64.5211 4.87333 64.4877 5.05667 64.4877 5.31V7.64C64.4877 7.88 64.5577 8.06667 64.6977 8.2C64.8377 8.33333 65.0277 8.4 65.2677 8.4H65.8477ZM68.89 9C68.5233 9 68.23 8.89 68.01 8.67C67.7967 8.45 67.69 8.15333 67.69 7.78V5.12C67.69 4.68667 67.81 4.34667 68.05 4.1C68.29 3.85333 68.6467 3.73 69.12 3.73C69.5933 3.73 69.9467 3.85333 70.18 4.1C70.42 4.34667 70.54 4.68667 70.54 5.12V5.58C70.54 5.86 70.46 6.07333 70.3 6.22C70.14 6.36 69.93 6.46667 69.67 6.54L68.49 6.87V7.85C68.49 8.01 68.5367 8.14333 68.63 8.25C68.73 8.35 68.8567 8.4 69.01 8.4H70.09V9H68.89ZM69.1 6.07C69.32 6.01 69.4667 5.96667 69.54 5.94C69.62 5.90667 69.6733 5.86 69.7 5.8C69.7267 5.74 69.74 5.64 69.74 5.5V4.95C69.74 4.73667 69.6833 4.58 69.57 4.48C69.4633 4.38 69.3133 4.33 69.12 4.33C68.9333 4.33 68.78 4.38333 68.66 4.49C68.5467 4.59667 68.49 4.75 68.49 4.95V6.24L69.1 6.07ZM71.3363 3.8H71.9563L72.0463 4.09L72.4563 3.97C72.7363 3.88333 72.9563 3.82333 73.1163 3.79C73.283 3.75 73.4397 3.73 73.5863 3.73C73.8263 3.73 74.003 3.81333 74.1163 3.98C74.2297 4.14667 74.2863 4.36333 74.2863 4.63V9H73.4863V4.89C73.4863 4.69667 73.473 4.56333 73.4463 4.49C73.4197 4.41 73.353 4.37 73.2463 4.37C73.193 4.37 72.823 4.47667 72.1363 4.69V9H71.3363V3.8ZM76.4988 9C76.1322 9 75.8388 8.89 75.6188 8.67C75.4055 8.45 75.2988 8.15333 75.2988 7.78V5.12C75.2988 4.7 75.4088 4.37667 75.6288 4.15C75.8488 3.91667 76.1688 3.8 76.5888 3.8H77.6988V4.4H76.6088C76.4555 4.4 76.3322 4.45333 76.2388 4.56C76.1455 4.66 76.0988 4.79 76.0988 4.95V7.85C76.0988 8.01 76.1455 8.14333 76.2388 8.25C76.3388 8.35 76.4655 8.4 76.6188 8.4H77.6988V9H76.4988ZM79.4369 9C79.0702 9 78.7769 8.89 78.5569 8.67C78.3435 8.45 78.2369 8.15333 78.2369 7.78V5.12C78.2369 4.68667 78.3569 4.34667 78.5969 4.1C78.8369 3.85333 79.1935 3.73 79.6669 3.73C80.1402 3.73 80.4935 3.85333 80.7269 4.1C80.9669 4.34667 81.0869 4.68667 81.0869 5.12V5.58C81.0869 5.86 81.0069 6.07333 80.8469 6.22C80.6869 6.36 80.4769 6.46667 80.2169 6.54L79.0369 6.87V7.85C79.0369 8.01 79.0835 8.14333 79.1769 8.25C79.2769 8.35 79.4035 8.4 79.5569 8.4H80.6369V9H79.4369ZM79.6469 6.07C79.8669 6.01 80.0135 5.96667 80.0869 5.94C80.1669 5.90667 80.2202 5.86 80.2469 5.8C80.2735 5.74 80.2869 5.64 80.2869 5.5V4.95C80.2869 4.73667 80.2302 4.58 80.1169 4.48C80.0102 4.38 79.8602 4.33 79.6669 4.33C79.4802 4.33 79.3269 4.38333 79.2069 4.49C79.0935 4.59667 79.0369 4.75 79.0369 4.95V6.24L79.6469 6.07ZM46.72 13H48.46C49.0667 13 49.5367 13.1533 49.87 13.46C50.2033 13.7667 50.37 14.2167 50.37 14.81V18.19C50.37 18.7833 50.2033 19.2333 49.87 19.54C49.5367 19.84 49.0667 19.9933 48.46 20H46.72V13ZM48.46 19.32C48.7667 19.32 49.0133 19.2333 49.2 19.06C49.3933 18.88 49.49 18.6433 49.49 18.35V14.65C49.49 14.3567 49.3933 14.1233 49.2 13.95C49.0133 13.77 48.7667 13.68 48.46 13.68H47.61V19.32H48.46ZM51.4047 13.95V13.15H52.2047V13.95H51.4047ZM51.4047 20V14.8H52.2047V20H51.4047ZM54.4666 20C54.2266 20 54.0033 19.94 53.7966 19.82C53.5966 19.7 53.4366 19.5367 53.3166 19.33C53.2033 19.1233 53.1466 18.89 53.1466 18.63V18.11C53.1466 17.7967 53.2233 17.5333 53.3766 17.32C53.5366 17.1067 53.7333 16.9567 53.9666 16.87L55.2066 16.41V15.94C55.2066 15.78 55.1566 15.65 55.0566 15.55C54.9633 15.4433 54.84 15.39 54.6866 15.39H53.5566V14.8H54.7566C55.1233 14.8 55.4133 14.91 55.6266 15.13C55.8466 15.3433 55.9566 15.6367 55.9566 16.01V20H54.4666ZM55.2066 19.39V17.04L54.3266 17.37C54.1533 17.4367 54.03 17.5267 53.9566 17.64C53.89 17.7533 53.8566 17.9333 53.8566 18.18V18.74C53.8566 18.92 53.9233 19.0733 54.0566 19.2C54.19 19.3267 54.35 19.39 54.5366 19.39H55.2066ZM57.479 21H58.509C58.6623 21 58.7823 20.9467 58.869 20.84C58.9623 20.74 59.009 20.61 59.009 20.45V20.01H58.179C57.8123 20.01 57.5023 19.89 57.249 19.65C56.9957 19.41 56.869 19.11 56.869 18.75V16.06C56.869 15.7 56.9957 15.4 57.249 15.16C57.509 14.92 57.8223 14.8 58.189 14.8H59.819V20.38C59.819 20.7533 59.7157 21.05 59.509 21.27C59.309 21.49 59.0257 21.6 58.659 21.6H57.479V21ZM59.019 19.41V15.4H58.349C58.1623 15.4 58.0023 15.4633 57.869 15.59C57.7357 15.7167 57.669 15.8733 57.669 16.06V18.75C57.669 18.9367 57.7357 19.0933 57.869 19.22C58.0023 19.3467 58.1623 19.41 58.349 19.41H59.019ZM60.9164 14.8H61.5364L61.6264 15.17L61.8764 15.05C62.0897 14.9433 62.2664 14.8633 62.4064 14.81C62.5531 14.7567 62.6997 14.73 62.8464 14.73V15.32C62.7597 15.32 62.6431 15.3467 62.4964 15.4C62.3497 15.4467 62.0897 15.56 61.7164 15.74V20H60.9164V14.8ZM64.6522 20C64.4122 20 64.1889 19.94 63.9822 19.82C63.7822 19.7 63.6222 19.5367 63.5022 19.33C63.3889 19.1233 63.3322 18.89 63.3322 18.63V18.11C63.3322 17.7967 63.4089 17.5333 63.5622 17.32C63.7222 17.1067 63.9189 16.9567 64.1522 16.87L65.3922 16.41V15.94C65.3922 15.78 65.3422 15.65 65.2422 15.55C65.1489 15.4433 65.0255 15.39 64.8722 15.39H63.7422V14.8H64.9422C65.3089 14.8 65.5989 14.91 65.8122 15.13C66.0322 15.3433 66.1422 15.6367 66.1422 16.01V20H64.6522ZM65.3922 19.39V17.04L64.5122 17.37C64.3389 17.4367 64.2155 17.5267 64.1422 17.64C64.0755 17.7533 64.0422 17.9333 64.0422 18.18V18.74C64.0422 18.92 64.1089 19.0733 64.2422 19.2C64.3755 19.3267 64.5355 19.39 64.7222 19.39H65.3922ZM67.2445 14.8H67.8645L67.9545 15.09L68.3645 14.97C68.6445 14.8833 68.8645 14.8233 69.0245 14.79C69.1912 14.75 69.3479 14.73 69.4945 14.73C69.7812 14.73 69.9812 14.8567 70.0945 15.11C70.2812 15.0433 70.5445 14.9633 70.8845 14.87C71.2245 14.7767 71.4745 14.73 71.6345 14.73C71.8745 14.73 72.0512 14.8133 72.1645 14.98C72.2845 15.1467 72.3445 15.3633 72.3445 15.63V20H71.5445V15.89C71.5445 15.6967 71.5312 15.5633 71.5045 15.49C71.4779 15.41 71.4112 15.37 71.3045 15.37C71.2512 15.37 70.8845 15.4767 70.2045 15.69V20H69.4045V15.89C69.4045 15.6967 69.3912 15.5633 69.3645 15.49C69.3379 15.41 69.2712 15.37 69.1645 15.37C69.1112 15.37 68.7379 15.4767 68.0445 15.69V20H67.2445V14.8ZM46.63 31V24H47.96L49.3 28.14H49.37L50.74 24H52.02V31H51.14V25.05L49.8 29.14H48.85L47.51 25.04V31H46.63ZM54.2904 31C53.9237 31 53.6304 30.89 53.4104 30.67C53.1971 30.45 53.0904 30.1533 53.0904 29.78V27.12C53.0904 26.6867 53.2104 26.3467 53.4504 26.1C53.6904 25.8533 54.0471 25.73 54.5204 25.73C54.9937 25.73 55.3471 25.8533 55.5804 26.1C55.8204 26.3467 55.9404 26.6867 55.9404 27.12V27.58C55.9404 27.86 55.8604 28.0733 55.7004 28.22C55.5404 28.36 55.3304 28.4667 55.0704 28.54L53.8904 28.87V29.85C53.8904 30.01 53.9371 30.1433 54.0304 30.25C54.1304 30.35 54.2571 30.4 54.4104 30.4H55.4904V31H54.2904ZM54.5004 28.07C54.7204 28.01 54.8671 27.9667 54.9404 27.94C55.0204 27.9067 55.0737 27.86 55.1004 27.8C55.1271 27.74 55.1404 27.64 55.1404 27.5V26.95C55.1404 26.7367 55.0837 26.58 54.9704 26.48C54.8637 26.38 54.7137 26.33 54.5204 26.33C54.3337 26.33 54.1804 26.3833 54.0604 26.49C53.9471 26.5967 53.8904 26.75 53.8904 26.95V28.24L54.5004 28.07ZM58.1867 31C57.8201 31 57.5301 30.89 57.3167 30.67C57.1034 30.45 56.9967 30.1533 56.9967 29.78V26.4H56.3967V25.8H56.9967V24.29L57.7967 23.99V25.8H58.5967V26.4H57.7967V29.85C57.7967 30.01 57.8401 30.1433 57.9267 30.25C58.0201 30.35 58.1434 30.4 58.2967 30.4H58.5967V31H58.1867ZM59.393 24H60.193V26.07L60.633 25.94C60.9063 25.86 61.1063 25.8067 61.233 25.78C61.3663 25.7467 61.503 25.73 61.643 25.73C61.883 25.73 62.0596 25.8133 62.173 25.98C62.2863 26.1467 62.343 26.3633 62.343 26.63V31H61.543V26.89C61.543 26.6967 61.5296 26.5633 61.503 26.49C61.4763 26.41 61.4096 26.37 61.303 26.37C61.2496 26.37 60.8796 26.4767 60.193 26.69V31H59.393V24ZM64.8231 31.07C64.3565 31.07 63.9931 30.9533 63.7331 30.72C63.4798 30.48 63.3531 30.15 63.3531 29.73V27.07C63.3531 26.65 63.4798 26.3233 63.7331 26.09C63.9931 25.85 64.3565 25.73 64.8231 25.73C65.2898 25.73 65.6498 25.85 65.9031 26.09C66.1631 26.3233 66.2931 26.65 66.2931 27.07V29.73C66.2931 30.15 66.1631 30.48 65.9031 30.72C65.6498 30.9533 65.2898 31.07 64.8231 31.07ZM64.8231 30.45C65.0365 30.45 65.2031 30.39 65.3231 30.27C65.4498 30.1433 65.5131 29.9633 65.5131 29.73V27.07C65.5131 26.8367 65.4498 26.66 65.3231 26.54C65.2031 26.4133 65.0365 26.35 64.8231 26.35C64.6098 26.35 64.4398 26.4133 64.3131 26.54C64.1931 26.66 64.1331 26.8367 64.1331 27.07V29.73C64.1331 29.9633 64.1931 30.1433 64.3131 30.27C64.4398 30.39 64.6098 30.45 64.8231 30.45ZM68.6134 31C68.1934 31 67.8534 30.8767 67.5934 30.63C67.3334 30.3833 67.2034 30.0533 67.2034 29.64V27.15C67.2034 26.8633 67.28 26.62 67.4334 26.42C67.5934 26.22 67.79 26.0833 68.0234 26.01L69.3634 25.54V24H70.1634V31H68.6134ZM69.3634 30.4V26.2L68.4734 26.5C68.3 26.5533 68.1767 26.64 68.1034 26.76C68.0367 26.8733 68.0034 27.0567 68.0034 27.31V29.64C68.0034 29.88 68.0734 30.0667 68.2134 30.2C68.3534 30.3333 68.5434 30.4 68.7834 30.4H69.3634Z" fill="black"/>
<path d="M40 0V32.5" stroke="black"/>
<path d="M29.5 2H2.5C1.83696 2 1.20107 2.26339 0.732233 2.73223C0.263392 3.20107 0 3.83696 0 4.5V23.5C0 24.163 0.263392 24.7989 0.732233 25.2678C1.20107 25.7366 1.83696 26 2.5 26H10V28.5H6.25V31H25.75V28.5H22V26H29.5C30.163 26 30.7989 25.7366 31.2678 25.2678C31.7366 24.7989 32 24.163 32 23.5V4.5C32 3.83696 31.7366 3.20107 31.2678 2.73223C30.7989 2.26339 30.163 2 29.5 2ZM29.5 23.5H2.5V4.5H29.5V23.5Z" fill="black"/>
<rect x="6" y="8" width="6" height="4" rx="2" fill="black"/>
<rect x="21" y="17" width="6" height="4" rx="2" fill="black"/>
<rect x="20" y="8" width="6" height="4" rx="2" fill="black"/>
<rect x="6" y="17" width="6" height="4" rx="2" fill="black"/>
<path d="M11 10H14V19C14 19 18.5711 19 21.5 19" stroke="black"/>
<path d="M12 19H16.5V10H21.5" stroke="black"/>
</svg>
