<svg width="21" height="20" viewBox="0 0 21 20" fill="none" xmlns="http://www.w3.org/2000/svg">
<path d="M4.01343 10.9375C4.53119 10.9375 4.95093 10.5178 4.95093 10C4.95093 9.48223 4.53119 9.0625 4.01343 9.0625C3.49566 9.0625 3.07593 9.48223 3.07593 10C3.07593 10.5178 3.49566 10.9375 4.01343 10.9375Z" stroke="black" stroke-width="1.5" stroke-linecap="round" stroke-linejoin="round"/>
<path d="M10.8884 10.9375C11.4062 10.9375 11.8259 10.5178 11.8259 10C11.8259 9.48223 11.4062 9.0625 10.8884 9.0625C10.3707 9.0625 9.95093 9.48223 9.95093 10C9.95093 10.5178 10.3707 10.9375 10.8884 10.9375Z" stroke="black" stroke-width="1.5" stroke-linecap="round" stroke-linejoin="round"/>
<path d="M17.7634 10.9375C18.2812 10.9375 18.7009 10.5178 18.7009 10C18.7009 9.48223 18.2812 9.0625 17.7634 9.0625C17.2457 9.0625 16.8259 9.48223 16.8259 10C16.8259 10.5178 17.2457 10.9375 17.7634 10.9375Z" stroke="black" stroke-width="1.5" stroke-linecap="round" stroke-linejoin="round"/>
</svg>
