<svg width="21" height="21" viewBox="0 0 21 21" fill="none" xmlns="http://www.w3.org/2000/svg">
<path d="M0.108154 2.87305C0.108154 1.77305 1.00815 0.873047 2.10815 0.873047H6.10815V2.87305H2.10815V6.87305H0.108154V2.87305ZM20.1082 18.873C20.1082 19.983 19.2182 20.873 18.1082 20.873H14.1082V18.873H18.1082V14.873H20.1082V18.873ZM2.10815 20.873C1.00815 20.873 0.108154 19.983 0.108154 18.873V14.873H2.10815V18.873H6.10815V20.873H2.10815ZM18.1082 0.873047C19.2182 0.873047 20.1082 1.77305 20.1082 2.87305V6.87305H18.1082V2.87305H14.1082V0.873047H18.1082ZM7.10815 5.87305V7.87305H9.10815V15.873H11.1082V7.87305H13.1082V5.87305H7.10815Z" fill="black"/>
</svg>
