<svg width="21" height="21" viewBox="0 0 21 21" fill="none" xmlns="http://www.w3.org/2000/svg">
<path d="M8.52921 18.7502C10.2043 18.7502 11.8107 18.0848 12.9951 16.9004C14.1796 15.7159 14.845 14.1095 14.845 12.4344H16.9503C16.9503 14.6678 16.063 16.8097 14.4838 18.389C12.9045 19.9683 10.7626 20.8555 8.52921 20.8555C6.2958 20.8555 4.15388 19.9683 2.57462 18.389C0.99537 16.8097 0.108154 14.6678 0.108154 12.4344C0.108154 10.201 0.99537 8.05909 2.57462 6.47983C4.15388 4.90058 6.2958 4.01336 8.52921 4.01336V6.11863C6.85416 6.11863 5.24771 6.78404 4.06327 7.96848C2.87883 9.15292 2.21342 10.7594 2.21342 12.4344C2.21342 14.1095 2.87883 15.7159 4.06327 16.9004C5.24771 18.0848 6.85416 18.7502 8.52921 18.7502ZM16.9503 4.01336H20.1082V6.11863H16.9503V9.27652H14.845V6.11863H11.6871V4.01336H14.845V0.855469H16.9503V4.01336Z" fill="black"/>
</svg>
